<svg xmlns="http://www.w3.org/2000/svg" width="1024" height="1024" viewBox="0 0 1024 1024" version="1.1">
	<path d="M 754.5 310.464 C 754.156 310.577 751.794 310.749 749.25 310.846 C 746.706 310.942 743.725 311.128 742.625 311.258 C 741.525 311.388 738.769 311.664 736.5 311.871 C 734.231 312.079 731.854 312.369 731.217 312.517 C 729.969 312.807 726.898 313.265 722.125 313.874 C 720.475 314.085 718.956 314.32 718.75 314.396 C 718.544 314.473 717.25 314.751 715.875 315.016 C 711.251 315.905 705.98 317.092 702.625 318 C 701.525 318.297 699.894 318.689 699 318.87 C 695.612 319.556 686.276 322.282 679 324.711 C 676.319 325.606 673.45 326.554 672.625 326.818 C 671.8 327.082 670.731 327.449 670.25 327.633 C 669.769 327.816 668.587 328.263 667.625 328.626 C 666.663 328.988 665.538 329.432 665.125 329.612 C 664.712 329.792 663.642 330.227 662.745 330.579 C 661.849 330.931 660.78 331.394 660.37 331.608 C 659.96 331.822 659.465 331.998 659.27 331.998 C 658.585 332.001 649.048 336.335 641.875 339.902 C 633.845 343.896 630.809 345.482 629.5 346.367 C 629.019 346.693 628.05 347.278 627.347 347.667 C 624.251 349.382 621.451 351.055 619.199 352.533 C 617.865 353.408 616.009 354.616 615.074 355.215 C 613.47 356.245 611.802 357.393 608.126 360 C 607.253 360.619 606.289 361.294 605.985 361.5 C 605.68 361.706 605.12 362.128 604.742 362.438 C 604.363 362.747 603.978 363 603.886 363 C 603.795 363 602.63 363.875 601.297 364.945 C 599.965 366.014 598.594 367.075 598.25 367.301 C 597.906 367.527 597.288 368.014 596.875 368.384 C 596.462 368.754 595.731 369.353 595.25 369.715 C 594.769 370.078 594.263 370.499 594.125 370.651 C 593.987 370.802 593.087 371.562 592.125 372.338 C 591.163 373.115 589.7 374.324 588.875 375.024 C 587.415 376.263 581.231 382.098 577.64 385.625 C 575.96 387.275 572.832 390.647 570.094 393.762 C 567.696 396.491 564.091 400.941 562 403.756 C 561.381 404.588 560.479 405.8 559.995 406.447 C 559.511 407.095 558.928 407.906 558.699 408.25 C 558.471 408.594 557.604 409.831 556.773 411 C 555.942 412.169 554.69 414.081 553.992 415.25 C 553.294 416.419 552.377 417.938 551.956 418.625 C 550.498 421.001 545.398 430.82 544.878 432.25 C 544.703 432.731 544.271 433.744 543.919 434.5 C 542.627 437.27 541.115 441.468 539.507 446.75 C 539.235 447.644 538.785 449.1 538.506 449.987 L 537.999 451.599 L 538.62 452.487 C 541.007 455.905 541.914 457.216 542.186 457.64 C 542.894 458.745 544.643 462.203 545.023 463.25 C 545.949 465.797 546.994 469.232 547.345 470.875 C 547.55 471.837 547.856 473.98 548.025 475.635 C 548.286 478.193 548.272 479.171 547.933 482.135 C 547.714 484.055 547.408 486.244 547.253 487 C 547.098 487.756 546.528 489.676 545.986 491.266 C 545.443 492.856 545 494.347 545 494.579 C 545 495.095 545.822 495.14 546.233 494.646 C 546.394 494.451 547.28 493.785 548.201 493.166 C 550.116 491.877 555.237 489.001 555.619 488.998 C 555.76 488.998 556.177 488.839 556.546 488.647 C 556.915 488.455 557.59 488.216 558.046 488.117 C 558.502 488.017 559.55 487.721 560.375 487.458 C 562.779 486.692 567.637 485.999 570.5 486.014 C 571.944 486.021 573.969 486.127 575 486.249 C 576.804 486.463 579.358 487.031 582.239 487.857 C 583.915 488.338 587.463 490.064 589.06 491.175 C 589.712 491.629 590.318 492 590.407 492 C 590.757 492 594.228 494.969 596.125 496.891 C 598.868 499.669 601.842 504.149 603.036 507.301 C 604.281 510.586 604.782 512.26 605.297 514.848 C 605.737 517.057 605.848 518.468 605.84 521.75 C 605.832 525.239 605.732 526.318 605.19 528.75 C 604.837 530.331 604.158 532.696 603.681 534.006 C 602.807 536.402 601.083 540.036 600.253 541.231 C 600.007 541.585 599.403 542.5 598.911 543.264 C 597.862 544.891 593.854 549.259 592.369 550.392 C 591.372 551.154 590.499 551.857 589.91 552.375 C 588.995 553.178 584.796 555.645 583 556.433 C 579.61 557.922 576.728 558.774 573.375 559.279 C 570.686 559.683 565.053 559.795 563.552 559.473 C 562.681 559.287 562.372 559.323 561.918 559.666 C 561.61 559.898 561.08 560.537 560.741 561.085 C 560.402 561.633 559.879 562.38 559.579 562.745 C 559.278 563.11 558.958 563.706 558.867 564.068 C 558.727 564.624 558.794 564.747 559.288 564.848 C 559.611 564.914 560.55 565.036 561.375 565.118 C 563.795 565.36 566.993 566.015 568.875 566.653 C 573.077 568.078 574.161 568.541 576.529 569.917 C 577.909 570.719 579.401 571.6 579.844 571.875 C 581.532 572.923 583.713 574.788 586.092 577.219 C 587.489 578.647 588.79 579.764 589.092 579.794 C 589.385 579.823 590.188 579.591 590.875 579.278 C 592.1 578.721 592.933 578.353 594.563 577.649 C 595.009 577.457 596.015 577.007 596.797 576.649 C 597.579 576.292 598.293 576 598.384 576 C 598.475 576 598.904 575.84 599.337 575.645 C 599.77 575.45 601.475 574.714 603.125 574.009 C 604.775 573.304 606.494 572.563 606.946 572.363 C 607.398 572.164 607.872 572 608.001 572 C 608.129 572 609.616 571.341 611.305 570.535 C 612.993 569.73 614.656 568.985 615 568.88 C 615.344 568.775 615.737 568.605 615.875 568.502 C 616.013 568.399 616.575 568.173 617.125 568 C 617.675 567.827 618.237 567.601 618.375 567.498 C 618.716 567.242 628.368 563 628.608 563 C 628.713 563 629.154 562.837 629.587 562.637 C 631.607 561.707 636.199 559.951 639.375 558.895 C 641.3 558.254 643.1 557.633 643.375 557.513 C 643.65 557.393 645.056 556.937 646.5 556.498 C 647.944 556.06 649.575 555.558 650.125 555.383 C 651.236 555.029 654.327 554.297 658.125 553.488 C 659.5 553.195 661.244 552.811 662 552.634 C 662.756 552.456 665.175 552.01 667.375 551.642 C 669.575 551.274 672.331 550.809 673.5 550.609 C 674.669 550.41 677.249 550.128 679.235 549.984 C 681.22 549.839 682.928 549.669 683.031 549.606 C 683.387 549.386 695.214 548.282 700.25 548 C 704.112 547.783 706.315 547.614 713.125 547.009 C 714.638 546.875 716.831 546.601 718 546.401 C 721.32 545.833 723.425 545.5 726.04 545.133 C 728.245 544.824 730.474 544.377 733.125 543.716 C 733.675 543.578 734.744 543.321 735.5 543.143 C 736.256 542.965 737.494 542.63 738.25 542.398 C 739.006 542.166 740.413 541.752 741.375 541.479 C 744.052 540.719 749.241 539.033 750.5 538.514 C 751.119 538.259 752.712 537.589 754.04 537.025 C 755.368 536.461 756.527 536 756.616 536 C 756.831 536 758.489 535.244 762.164 533.468 C 763.836 532.661 765.275 532 765.362 532 C 765.449 532 767.063 531.123 768.948 530.05 C 770.833 528.978 772.656 527.961 773 527.79 C 773.641 527.472 774.069 527.221 775.375 526.394 C 775.788 526.133 776.519 525.673 777 525.37 C 778.491 524.434 782.805 521.524 784.25 520.48 C 785.006 519.934 786.188 519.101 786.875 518.629 C 787.563 518.157 789.194 516.866 790.5 515.761 C 791.806 514.655 792.987 513.664 793.125 513.558 C 793.263 513.453 794.388 512.472 795.625 511.38 C 796.862 510.288 799.773 507.478 802.094 505.135 C 806.014 501.176 808.332 498.553 811.332 494.682 C 811.995 493.826 812.968 492.619 813.494 492 C 814.411 490.921 816.284 488.454 817.385 486.875 C 817.673 486.462 818.385 485.45 818.967 484.625 C 820.161 482.934 824.746 476.039 827.977 471.075 C 829.158 469.26 830.997 466.436 832.063 464.798 C 833.128 463.16 834 461.744 834 461.65 C 834 461.556 834.431 460.893 834.957 460.177 C 835.483 459.461 836.22 458.369 836.595 457.75 C 836.969 457.131 837.656 456.119 838.121 455.5 C 838.586 454.881 838.982 454.262 839 454.125 C 839.018 453.988 839.416 453.369 839.884 452.75 C 840.352 452.131 841.358 450.725 842.119 449.625 C 845.62 444.565 847.457 442.044 849.742 439.164 C 850.631 438.042 851.446 437.012 851.553 436.875 C 852.442 435.727 853.791 434.124 855.2 432.541 C 858.112 429.267 865.015 422.449 868 419.898 C 869.581 418.546 871.944 416.678 873.25 415.746 C 875.367 414.235 879.752 411.409 880.75 410.913 C 880.956 410.81 881.575 410.454 882.125 410.122 C 883.73 409.152 887.479 407.335 889.375 406.609 C 890.337 406.241 891.462 405.791 891.875 405.61 C 894.019 404.669 898.997 403.311 902.25 402.779 C 903.144 402.632 904.381 402.412 905 402.29 C 907.605 401.773 912.802 401.448 916.375 401.578 C 920.035 401.711 925.378 402.193 929.351 402.748 C 930.438 402.899 931.479 402.966 931.664 402.895 C 931.849 402.824 932 402.614 932 402.428 C 932 402.124 930.848 400.411 929.526 398.75 C 929.253 398.406 928.544 397.496 927.952 396.727 C 925.975 394.162 922.73 390.802 919.637 388.12 C 917.953 386.66 916.249 385.25 915.85 384.986 C 915.451 384.722 914.506 384.05 913.75 383.492 C 912.994 382.934 911.981 382.215 911.5 381.894 C 908.634 379.982 899.524 373.166 896.773 370.875 C 896.112 370.325 895.256 369.65 894.87 369.375 C 894.483 369.1 894.045 368.762 893.896 368.625 C 893.747 368.488 893.006 367.902 892.25 367.325 C 891.494 366.747 890.529 365.96 890.105 365.575 C 889.312 364.853 888.839 364.46 885.291 361.572 C 882.059 358.941 881.245 358.284 878.336 355.957 C 876.845 354.764 875.175 353.4 874.625 352.926 C 874.075 352.452 872.837 351.472 871.875 350.748 C 870.913 350.025 869.781 349.139 869.361 348.779 C 868.941 348.419 868.218 347.844 867.753 347.5 C 867.289 347.156 866.426 346.481 865.837 346 C 863.295 343.925 852.749 336.56 851.25 335.814 C 850.906 335.643 849.95 335.057 849.125 334.512 C 847.531 333.46 844.203 331.538 840.161 329.337 C 837.036 327.635 827.556 323 827.199 323 C 827.051 323 826.467 322.788 825.902 322.53 C 825.337 322.271 824.256 321.808 823.5 321.501 C 822.744 321.193 821.619 320.734 821 320.481 C 820.381 320.228 818.919 319.722 817.75 319.356 C 816.581 318.99 815.4 318.597 815.125 318.482 C 813.848 317.947 809.487 316.604 806.625 315.865 C 805.938 315.687 804.25 315.25 802.875 314.893 C 801.5 314.536 799.644 314.13 798.75 313.99 C 797.856 313.851 796.394 313.576 795.5 313.381 C 793.841 313.019 789.151 312.307 784 311.635 C 782.419 311.429 778.706 311.096 775.75 310.895 C 769.315 310.458 755.379 310.176 754.5 310.464 M 815.09 371.483 C 814.659 371.589 812.015 371.757 809.215 371.856 C 806.416 371.955 803.056 372.135 801.75 372.256 C 797.97 372.607 792.756 373.231 791.125 373.527 C 790.3 373.677 788.556 373.95 787.25 374.135 C 784.895 374.467 781.671 375.017 776.375 375.989 C 772.283 376.741 767.841 377.752 762.75 379.091 C 761.444 379.435 758.631 380.161 756.499 380.705 C 754.368 381.248 751.78 381.974 750.749 382.318 C 749.718 382.662 747.356 383.417 745.5 383.997 C 741.751 385.169 740.756 385.511 737.125 386.879 C 732.711 388.542 731.397 389.055 730.326 389.532 C 729.749 389.79 729.148 390 728.989 390 C 728.83 390 728.346 390.16 727.913 390.355 C 727.48 390.55 725.775 391.29 724.125 392 C 722.475 392.71 720.77 393.45 720.337 393.645 C 719.904 393.84 719.475 394 719.384 394 C 719.293 394 718.579 394.296 717.797 394.658 C 715.33 395.8 709.21 398.739 707 399.844 C 703.358 401.664 696.905 405.052 696.25 405.488 C 695.906 405.717 694.894 406.269 694 406.715 C 693.106 407.161 692.076 407.717 691.712 407.95 C 691.03 408.387 689.64 409.224 685.488 411.701 C 683.252 413.035 681.015 414.455 679.448 415.534 C 679.075 415.79 678.713 416 678.644 416 C 678.575 416 678.036 416.337 677.446 416.75 C 674.818 418.589 672.149 420.415 671.419 420.875 C 670.982 421.15 669.556 422.173 668.25 423.149 C 666.944 424.125 665.752 424.968 665.601 425.024 C 665.451 425.08 664.832 425.54 664.226 426.047 C 663.621 426.555 662.225 427.673 661.125 428.534 C 655.936 432.591 652.517 435.43 648.375 439.12 C 645.9 441.325 642.694 444.251 641.25 445.622 C 637.138 449.526 627.256 459.617 624.453 462.775 C 623.277 464.099 621.256 466.435 619.466 468.539 C 618.454 469.729 616.773 471.698 615.733 472.914 C 613.683 475.309 609.882 480.088 608.539 481.96 C 608.079 482.601 607.095 483.869 606.351 484.778 C 605.608 485.687 605 486.547 605 486.689 C 605 486.83 604.831 487.011 604.625 487.09 C 604.419 487.17 604.25 487.47 604.25 487.759 L 604.25 488.284 L 604.938 487.79 C 605.316 487.519 606.584 486.358 607.755 485.211 C 610.061 482.953 613.719 479.618 615.068 478.544 C 615.53 478.176 616.801 477.072 617.892 476.09 C 618.983 475.108 621.337 473.105 623.125 471.639 C 627.193 468.302 635.913 461.324 638.294 459.5 C 641.584 456.979 645.733 453.885 647.011 453 C 647.706 452.519 649.506 451.225 651.012 450.125 C 652.517 449.025 654.396 447.708 655.187 447.198 C 656.783 446.169 660.938 443.393 663.617 441.564 C 664.576 440.91 666.038 439.987 666.867 439.513 C 667.697 439.039 669.251 438.055 670.322 437.326 C 671.393 436.597 672.318 436 672.377 436 C 672.436 436 673.135 435.565 673.93 435.034 C 675.616 433.906 684.672 428.521 686.716 427.43 C 687.486 427.019 688.512 426.435 688.995 426.131 C 689.479 425.827 691.45 424.757 693.375 423.752 C 695.3 422.747 697.044 421.787 697.25 421.617 C 697.456 421.448 697.894 421.227 698.222 421.127 C 698.55 421.027 700.012 420.278 701.472 419.464 C 703.782 418.175 716.112 412 716.376 412 C 716.429 412 718.194 411.175 720.299 410.166 C 722.403 409.158 724.856 408.023 725.75 407.645 C 727.76 406.795 728.035 406.673 732.799 404.529 C 733.444 404.238 734.063 403.996 734.174 403.992 C 734.284 403.987 734.825 403.766 735.375 403.5 C 735.925 403.234 736.492 403.013 736.634 403.008 C 736.777 403.004 737.846 402.598 739.009 402.106 C 741.633 400.998 742.218 400.775 746.875 399.116 C 748.938 398.381 751.413 397.486 752.375 397.127 C 755.079 396.118 759.778 394.48 760.75 394.207 C 762.842 393.62 766.414 392.509 771.75 390.787 C 772.644 390.498 774.163 390.099 775.125 389.899 C 776.087 389.699 777.663 389.289 778.625 388.988 C 781.011 388.242 792.549 385.299 794.25 385.002 C 795.006 384.87 796.975 384.479 798.625 384.132 C 802.503 383.318 807.777 382.313 810.625 381.846 C 811.862 381.643 814.281 381.316 816 381.119 C 817.719 380.923 820.306 380.592 821.75 380.384 C 825.527 379.839 830.187 379.289 833.5 378.995 C 835.081 378.855 837.331 378.63 838.5 378.495 C 842.937 377.982 854.47 377.716 865.857 377.864 C 873.758 377.967 877.512 377.932 877.621 377.756 C 877.71 377.613 877.634 377.452 877.453 377.399 C 876.075 376.988 873.254 376.392 871.375 376.114 C 870.138 375.932 867.438 375.444 865.375 375.031 C 863.313 374.618 860.725 374.154 859.625 374 C 858.525 373.846 856.556 373.56 855.25 373.365 C 851.219 372.762 844.101 372.041 839.125 371.733 C 833.517 371.386 816.22 371.206 815.09 371.483 M 603.298 488.519 C 603.347 488.667 603.494 488.788 603.625 488.788 C 603.756 488.788 603.903 488.667 603.952 488.519 C 604.001 488.371 603.854 488.25 603.625 488.25 C 603.396 488.25 603.249 488.371 603.298 488.519" stroke="none" fill="#F4EDE4" fill-rule="evenodd"/>
</svg>
